<svg width="82" height="16" viewBox="0 0 82 16" fill="none" xmlns="http://www.w3.org/2000/svg">
<path d="M0.38 0.719999H11.06V3.36H3.52V6.42H10.44V8.86H3.52V12.36H11.22V15H0.38V0.719999ZM20.3888 9.8C20.3888 9.37333 20.3488 8.96667 20.2688 8.58C20.1888 8.18 20.0488 7.83333 19.8488 7.54C19.6621 7.23333 19.4154 6.98667 19.1088 6.8C18.8021 6.61333 18.4154 6.52 17.9488 6.52C17.4821 6.52 17.0888 6.61333 16.7688 6.8C16.4488 6.98667 16.1888 7.23333 15.9888 7.54C15.8021 7.84667 15.6621 8.2 15.5688 8.6C15.4888 8.98667 15.4488 9.39333 15.4488 9.82C15.4488 10.22 15.4954 10.62 15.5888 11.02C15.6821 11.42 15.8288 11.78 16.0288 12.1C16.2421 12.4067 16.5021 12.66 16.8088 12.86C17.1288 13.0467 17.5088 13.14 17.9488 13.14C18.4154 13.14 18.8021 13.0467 19.1088 12.86C19.4288 12.6733 19.6821 12.4267 19.8688 12.12C20.0554 11.8 20.1888 11.44 20.2688 11.04C20.3488 10.64 20.3888 10.2267 20.3888 9.8ZM20.4288 13.68H20.3888C20.0554 14.24 19.6154 14.6467 19.0688 14.9C18.5354 15.14 17.9288 15.26 17.2487 15.26C16.4754 15.26 15.7954 15.1133 15.2088 14.82C14.6221 14.5133 14.1354 14.1067 13.7488 13.6C13.3754 13.08 13.0888 12.4867 12.8888 11.82C12.7021 11.1533 12.6088 10.46 12.6088 9.74C12.6088 9.04667 12.7021 8.38 12.8888 7.74C13.0888 7.08667 13.3754 6.51333 13.7488 6.02C14.1354 5.52667 14.6154 5.13333 15.1888 4.84C15.7621 4.53333 16.4288 4.38 17.1888 4.38C17.8021 4.38 18.3821 4.51333 18.9288 4.78C19.4888 5.03333 19.9288 5.41333 20.2488 5.92H20.2888V0.719999H23.1288V15H20.4288V13.68ZM34.9753 15H32.2753V13.56H32.2153C31.8553 14.16 31.3886 14.5933 30.8153 14.86C30.242 15.1267 29.6553 15.26 29.0553 15.26C28.2953 15.26 27.6686 15.16 27.1753 14.96C26.6953 14.76 26.3153 14.48 26.0353 14.12C25.7553 13.7467 25.5553 13.3 25.4353 12.78C25.3286 12.2467 25.2753 11.66 25.2753 11.02V4.66H28.1153V10.5C28.1153 11.3533 28.2486 11.9933 28.5153 12.42C28.782 12.8333 29.2553 13.04 29.9353 13.04C30.7086 13.04 31.2686 12.8133 31.6153 12.36C31.962 11.8933 32.1353 11.1333 32.1353 10.08V4.66H34.9753V15ZM51.0308 15H47.9108L45.4908 5.28H45.4508L43.0708 15H39.8908L36.1108 0.719999H39.2508L41.5108 10.44H41.5508L44.0308 0.719999H46.9708L49.4108 10.56H49.4508L51.7908 0.719999H54.8708L51.0308 15ZM58.9375 3.06H56.0975V0.719999H58.9375V3.06ZM56.0975 4.66H58.9375V15H56.0975V4.66ZM63.3738 11.64C63.3738 11.9467 63.4338 12.2133 63.5538 12.44C63.6871 12.6533 63.8538 12.8333 64.0538 12.98C64.2538 13.1133 64.4804 13.2133 64.7338 13.28C65.0004 13.3467 65.2738 13.38 65.5538 13.38C65.7538 13.38 65.9604 13.36 66.1738 13.32C66.4004 13.2667 66.6004 13.1933 66.7738 13.1C66.9604 12.9933 67.1138 12.86 67.2338 12.7C67.3538 12.5267 67.4138 12.3133 67.4138 12.06C67.4138 11.6333 67.1271 11.3133 66.5538 11.1C65.9938 10.8867 65.2071 10.6733 64.1938 10.46C63.7804 10.3667 63.3738 10.26 62.9738 10.14C62.5871 10.0067 62.2404 9.84 61.9338 9.64C61.6271 9.42667 61.3804 9.16667 61.1938 8.86C61.0071 8.54 60.9138 8.15333 60.9138 7.7C60.9138 7.03333 61.0404 6.48667 61.2938 6.06C61.5604 5.63333 61.9071 5.3 62.3338 5.06C62.7604 4.80667 63.2404 4.63333 63.7738 4.54C64.3071 4.43333 64.8538 4.38 65.4138 4.38C65.9738 4.38 66.5138 4.43333 67.0338 4.54C67.5671 4.64667 68.0404 4.82667 68.4538 5.08C68.8671 5.33333 69.2071 5.67333 69.4738 6.1C69.7538 6.51333 69.9204 7.04 69.9738 7.68H67.2738C67.2338 7.13333 67.0271 6.76667 66.6538 6.58C66.2804 6.38 65.8404 6.28 65.3338 6.28C65.1738 6.28 65.0004 6.29333 64.8138 6.32C64.6271 6.33333 64.4538 6.37333 64.2938 6.44C64.1471 6.50667 64.0204 6.60667 63.9138 6.74C63.8071 6.86 63.7538 7.02667 63.7538 7.24C63.7538 7.49333 63.8471 7.7 64.0338 7.86C64.2204 8.02 64.4604 8.15333 64.7538 8.26C65.0604 8.35333 65.4071 8.44 65.7938 8.52C66.1804 8.6 66.5738 8.68667 66.9738 8.78C67.3871 8.87333 67.7871 8.98667 68.1738 9.12C68.5738 9.25333 68.9271 9.43333 69.2338 9.66C69.5404 9.87333 69.7871 10.1467 69.9738 10.48C70.1604 10.8 70.2538 11.2 70.2538 11.68C70.2538 12.36 70.1138 12.9333 69.8338 13.4C69.5671 13.8533 69.2138 14.22 68.7738 14.5C68.3338 14.78 67.8271 14.9733 67.2538 15.08C66.6938 15.2 66.1204 15.26 65.5338 15.26C64.9338 15.26 64.3471 15.2 63.7738 15.08C63.2004 14.96 62.6871 14.76 62.2338 14.48C61.7938 14.2 61.4271 13.8333 61.1338 13.38C60.8538 12.9133 60.7004 12.3333 60.6738 11.64H63.3738ZM78.8759 8.72C78.7426 8 78.5026 7.45333 78.1559 7.08C77.8226 6.70667 77.3093 6.52 76.6159 6.52C76.1626 6.52 75.7826 6.6 75.4759 6.76C75.1826 6.90667 74.9426 7.09333 74.7559 7.32C74.5826 7.54667 74.4559 7.78667 74.3759 8.04C74.3093 8.29333 74.2693 8.52 74.2559 8.72H78.8759ZM74.2559 10.52C74.2959 11.44 74.5293 12.1067 74.9559 12.52C75.3826 12.9333 75.9959 13.14 76.7959 13.14C77.3693 13.14 77.8626 13 78.2759 12.72C78.6893 12.4267 78.9426 12.12 79.0359 11.8H81.5359C81.1359 13.04 80.5226 13.9267 79.6959 14.46C78.8693 14.9933 77.8693 15.26 76.6959 15.26C75.8826 15.26 75.1493 15.1333 74.4959 14.88C73.8426 14.6133 73.2893 14.24 72.8359 13.76C72.3826 13.28 72.0293 12.7067 71.7759 12.04C71.5359 11.3733 71.4159 10.64 71.4159 9.84C71.4159 9.06667 71.5426 8.34667 71.7959 7.68C72.0493 7.01333 72.4093 6.44 72.8759 5.96C73.3426 5.46667 73.8959 5.08 74.5359 4.8C75.1893 4.52 75.9093 4.38 76.6959 4.38C77.5759 4.38 78.3426 4.55333 78.9959 4.9C79.6493 5.23333 80.1826 5.68667 80.5959 6.26C81.0226 6.83333 81.3293 7.48667 81.5159 8.22C81.7026 8.95333 81.7693 9.72 81.7159 10.52H74.2559Z" fill="#793AFF"/>
</svg>
