<svg width="16" height="16" viewBox="0 0 16 16" fill="none" xmlns="http://www.w3.org/2000/svg">
<g clip-path="url(#clip0_110_594)">
<path d="M4.66667 7.33329V12.6666C4.66667 12.8434 4.59643 13.013 4.4714 13.138C4.34638 13.2631 4.17681 13.3333 4 13.3333H2.66667C2.48986 13.3333 2.32029 13.2631 2.19526 13.138C2.07024 13.013 2 12.8434 2 12.6666V7.99996C2 7.82315 2.07024 7.65358 2.19526 7.52855C2.32029 7.40353 2.48986 7.33329 2.66667 7.33329H4.66667ZM4.66667 7.33329C5.37391 7.33329 6.05219 7.05234 6.55228 6.55224C7.05238 6.05215 7.33333 5.37387 7.33333 4.66663V3.99996C7.33333 3.64634 7.47381 3.3072 7.72386 3.05715C7.97391 2.8071 8.31304 2.66663 8.66667 2.66663C9.02029 2.66663 9.35943 2.8071 9.60948 3.05715C9.85952 3.3072 10 3.64634 10 3.99996V7.33329H12C12.3536 7.33329 12.6928 7.47377 12.9428 7.72382C13.1929 7.97387 13.3333 8.313 13.3333 8.66663L12.6667 12C12.5708 12.4089 12.3889 12.7601 12.1484 13.0006C11.908 13.2411 11.6219 13.3578 11.3333 13.3333H6.66667C6.13623 13.3333 5.62753 13.1226 5.25245 12.7475C4.87738 12.3724 4.66667 11.8637 4.66667 11.3333" stroke="#71717A" stroke-linecap="round" stroke-linejoin="round"/>
</g>
<defs>
<clipPath id="clip0_110_594">
<rect width="16" height="16" fill="white"/>
</clipPath>
</defs>
</svg>
