<svg width="16" height="16" viewBox="0 0 16 16" fill="none" xmlns="http://www.w3.org/2000/svg">
<g clip-path="url(#clip0_110_589)">
<path d="M2 8C2 8.78793 2.15519 9.56815 2.45672 10.2961C2.75825 11.0241 3.20021 11.6855 3.75736 12.2426C4.31451 12.7998 4.97595 13.2417 5.7039 13.5433C6.43185 13.8448 7.21207 14 8 14C8.78793 14 9.56815 13.8448 10.2961 13.5433C11.0241 13.2417 11.6855 12.7998 12.2426 12.2426C12.7998 11.6855 13.2417 11.0241 13.5433 10.2961C13.8448 9.56815 14 8.78793 14 8C14 7.21207 13.8448 6.43185 13.5433 5.7039C13.2417 4.97595 12.7998 4.31451 12.2426 3.75736C11.6855 3.20021 11.0241 2.75825 10.2961 2.45672C9.56815 2.15519 8.78793 2 8 2C7.21207 2 6.43185 2.15519 5.7039 2.45672C4.97595 2.75825 4.31451 3.20021 3.75736 3.75736C3.20021 4.31451 2.75825 4.97595 2.45672 5.7039C2.15519 6.43185 2 7.21207 2 8Z" stroke="#71717A" stroke-linecap="round" stroke-linejoin="round"/>
<path d="M6 6.66663C6 7.19706 6.21071 7.70577 6.58579 8.08084C6.96086 8.45591 7.46957 8.66663 8 8.66663C8.53043 8.66663 9.03914 8.45591 9.41421 8.08084C9.78929 7.70577 10 7.19706 10 6.66663C10 6.13619 9.78929 5.62749 9.41421 5.25241C9.03914 4.87734 8.53043 4.66663 8 4.66663C7.46957 4.66663 6.96086 4.87734 6.58579 5.25241C6.21071 5.62749 6 6.13619 6 6.66663Z" stroke="#71717A" stroke-linecap="round" stroke-linejoin="round"/>
<path d="M4.1123 12.566C4.27731 12.0168 4.61495 11.5354 5.07514 11.1933C5.53532 10.8511 6.09354 10.6665 6.66697 10.6666H9.33364C9.90781 10.6664 10.4667 10.8516 10.9272 11.1945C11.3877 11.5374 11.7253 12.0198 11.8896 12.57" stroke="#71717A" stroke-linecap="round" stroke-linejoin="round"/>
</g>
<defs>
<clipPath id="clip0_110_589">
<rect width="16" height="16" fill="white"/>
</clipPath>
</defs>
</svg>
